<mxfile host="app.diagrams.net" modified="2020-11-21T17:10:28.776Z" agent="5.0 (Macintosh; Intel Mac OS X 10_15_7) AppleWebKit/537.36 (KHTML, like Gecko) Chrome/86.0.4240.183 Safari/537.36" etag="yR4wiAsgkXwZC3BUtjiU" version="13.9.8" type="github">
  <diagram id="weSfsGGjBlMfR_QjTAa8" name="Page-1">
    <mxGraphModel dx="1080" dy="1396" grid="1" gridSize="10" guides="1" tooltips="1" connect="1" arrows="1" fold="1" page="1" pageScale="1" pageWidth="827" pageHeight="1169" math="0" shadow="0">
      <root>
        <mxCell id="0" />
        <mxCell id="1" parent="0" />
        <mxCell id="0QPjTk3yCglVvkzHG2xV-15" value="티몬내부망" style="shape=umlFrame;whiteSpace=wrap;html=1;width=70;height=30;" vertex="1" parent="1">
          <mxGeometry x="270" y="120" width="410" height="590" as="geometry" />
        </mxCell>
        <mxCell id="0QPjTk3yCglVvkzHG2xV-42" value="" style="rounded=1;whiteSpace=wrap;html=1;fillColor=#FFCCCC;strokeColor=#000000;" vertex="1" parent="1">
          <mxGeometry x="276" y="410" width="380" height="210" as="geometry" />
        </mxCell>
        <mxCell id="0QPjTk3yCglVvkzHG2xV-14" value="외부망" style="shape=umlFrame;whiteSpace=wrap;html=1;" vertex="1" parent="1">
          <mxGeometry y="120" width="250" height="590" as="geometry" />
        </mxCell>
        <mxCell id="WskcQcXkYjXbEGhOWQWg-1" value="MD" style="shape=umlActor;verticalLabelPosition=bottom;verticalAlign=top;html=1;" vertex="1" parent="1">
          <mxGeometry x="380" y="150" width="20" height="40" as="geometry" />
        </mxCell>
        <mxCell id="WskcQcXkYjXbEGhOWQWg-3" value="POMS (입고시스템)" style="html=1;" vertex="1" parent="1">
          <mxGeometry x="470" y="150" width="110" height="50" as="geometry" />
        </mxCell>
        <mxCell id="WskcQcXkYjXbEGhOWQWg-6" value="발주" style="html=1;verticalAlign=bottom;endArrow=block;entryX=0;entryY=0.5;entryDx=0;entryDy=0;" edge="1" parent="1" target="WskcQcXkYjXbEGhOWQWg-3">
          <mxGeometry width="80" relative="1" as="geometry">
            <mxPoint x="400" y="175" as="sourcePoint" />
            <mxPoint x="540" y="290" as="targetPoint" />
          </mxGeometry>
        </mxCell>
        <mxCell id="0QPjTk3yCglVvkzHG2xV-2" value="고객" style="shape=umlActor;verticalLabelPosition=bottom;verticalAlign=top;html=1;" vertex="1" parent="1">
          <mxGeometry x="30" y="350" width="20" height="40" as="geometry" />
        </mxCell>
        <mxCell id="0QPjTk3yCglVvkzHG2xV-5" value="Tmon App/Web" style="html=1;" vertex="1" parent="1">
          <mxGeometry x="120" y="350" width="110" height="50" as="geometry" />
        </mxCell>
        <mxCell id="0QPjTk3yCglVvkzHG2xV-6" value="주문" style="html=1;verticalAlign=bottom;endArrow=block;entryX=0;entryY=0.5;entryDx=0;entryDy=0;" edge="1" parent="1">
          <mxGeometry width="80" relative="1" as="geometry">
            <mxPoint x="49.99999999999994" y="374.65999999999997" as="sourcePoint" />
            <mxPoint x="120" y="374.65999999999997" as="targetPoint" />
          </mxGeometry>
        </mxCell>
        <mxCell id="0QPjTk3yCglVvkzHG2xV-7" value="AMS" style="html=1;" vertex="1" parent="1">
          <mxGeometry x="290" y="350" width="110" height="50" as="geometry" />
        </mxCell>
        <mxCell id="0QPjTk3yCglVvkzHG2xV-8" value="전표생성" style="html=1;verticalAlign=bottom;endArrow=block;entryX=0;entryY=0.5;entryDx=0;entryDy=0;" edge="1" parent="1" target="0QPjTk3yCglVvkzHG2xV-7">
          <mxGeometry width="80" relative="1" as="geometry">
            <mxPoint x="230" y="375" as="sourcePoint" />
            <mxPoint x="130" y="384.65999999999985" as="targetPoint" />
          </mxGeometry>
        </mxCell>
        <mxCell id="0QPjTk3yCglVvkzHG2xV-10" value="WMS (출고시스템)" style="html=1;" vertex="1" parent="1">
          <mxGeometry x="470" y="270" width="110" height="50" as="geometry" />
        </mxCell>
        <mxCell id="0QPjTk3yCglVvkzHG2xV-11" value="일반배송/택배출고" style="html=1;verticalAlign=bottom;endArrow=block;entryX=0;entryY=0.5;entryDx=0;entryDy=0;exitX=0.5;exitY=0;exitDx=0;exitDy=0;" edge="1" parent="1" source="0QPjTk3yCglVvkzHG2xV-7" target="0QPjTk3yCglVvkzHG2xV-10">
          <mxGeometry x="0.2222" y="5" width="80" relative="1" as="geometry">
            <mxPoint x="240" y="385" as="sourcePoint" />
            <mxPoint x="300" y="385" as="targetPoint" />
            <Array as="points">
              <mxPoint x="345" y="295" />
            </Array>
            <mxPoint as="offset" />
          </mxGeometry>
        </mxCell>
        <mxCell id="0QPjTk3yCglVvkzHG2xV-12" value="TMS" style="html=1;" vertex="1" parent="1">
          <mxGeometry x="470" y="540" width="110" height="50" as="geometry" />
        </mxCell>
        <mxCell id="0QPjTk3yCglVvkzHG2xV-13" value="" style="html=1;verticalAlign=bottom;endArrow=block;entryX=0;entryY=0.5;entryDx=0;entryDy=0;exitX=0.5;exitY=1;exitDx=0;exitDy=0;entryPerimeter=0;" edge="1" parent="1" source="0QPjTk3yCglVvkzHG2xV-7" target="0QPjTk3yCglVvkzHG2xV-34">
          <mxGeometry x="1" y="125" width="80" relative="1" as="geometry">
            <mxPoint x="355" y="360" as="sourcePoint" />
            <mxPoint x="480" y="305" as="targetPoint" />
            <Array as="points">
              <mxPoint x="345" y="460" />
            </Array>
            <mxPoint x="110" y="65" as="offset" />
          </mxGeometry>
        </mxCell>
        <mxCell id="0QPjTk3yCglVvkzHG2xV-38" value="슈퍼마트 배송 주문" style="edgeLabel;html=1;align=center;verticalAlign=middle;resizable=0;points=[];" vertex="1" connectable="0" parent="0QPjTk3yCglVvkzHG2xV-13">
          <mxGeometry x="-0.0737" y="1" relative="1" as="geometry">
            <mxPoint x="-16" y="-4" as="offset" />
          </mxGeometry>
        </mxCell>
        <mxCell id="0QPjTk3yCglVvkzHG2xV-16" value="택배기사님" style="shape=umlActor;verticalLabelPosition=bottom;verticalAlign=top;html=1;" vertex="1" parent="1">
          <mxGeometry x="30" y="540" width="20" height="40" as="geometry" />
        </mxCell>
        <mxCell id="0QPjTk3yCglVvkzHG2xV-17" value="TDA App (배송앱)" style="html=1;" vertex="1" parent="1">
          <mxGeometry x="120" y="540" width="110" height="50" as="geometry" />
        </mxCell>
        <mxCell id="0QPjTk3yCglVvkzHG2xV-18" value="" style="endArrow=classic;startArrow=classic;html=1;entryX=0.006;entryY=0.409;entryDx=0;entryDy=0;entryPerimeter=0;" edge="1" parent="1" target="0QPjTk3yCglVvkzHG2xV-17">
          <mxGeometry width="50" height="50" relative="1" as="geometry">
            <mxPoint x="50" y="560" as="sourcePoint" />
            <mxPoint x="430" y="290" as="targetPoint" />
          </mxGeometry>
        </mxCell>
        <mxCell id="0QPjTk3yCglVvkzHG2xV-19" value="TDA (배송앱서버)" style="html=1;" vertex="1" parent="1">
          <mxGeometry x="290" y="540" width="110" height="50" as="geometry" />
        </mxCell>
        <mxCell id="0QPjTk3yCglVvkzHG2xV-20" value="" style="endArrow=classic;startArrow=classic;html=1;entryX=0;entryY=0.5;entryDx=0;entryDy=0;" edge="1" parent="1" target="0QPjTk3yCglVvkzHG2xV-19">
          <mxGeometry width="50" height="50" relative="1" as="geometry">
            <mxPoint x="230" y="565" as="sourcePoint" />
            <mxPoint x="130.65999999999997" y="570.45" as="targetPoint" />
          </mxGeometry>
        </mxCell>
        <mxCell id="0QPjTk3yCglVvkzHG2xV-21" value="메쉬코리아(AWS" style="shape=umlFrame;whiteSpace=wrap;html=1;width=80;height=30;" vertex="1" parent="1">
          <mxGeometry x="700" y="120" width="200" height="590" as="geometry" />
        </mxCell>
        <mxCell id="0QPjTk3yCglVvkzHG2xV-22" value="TMS Engine&lt;br&gt;(경로 라우팅 서버)" style="html=1;" vertex="1" parent="1">
          <mxGeometry x="745" y="540" width="110" height="50" as="geometry" />
        </mxCell>
        <mxCell id="0QPjTk3yCglVvkzHG2xV-23" value="" style="endArrow=classic;startArrow=classic;html=1;entryX=0;entryY=0.5;entryDx=0;entryDy=0;" edge="1" parent="1" target="0QPjTk3yCglVvkzHG2xV-22">
          <mxGeometry width="50" height="50" relative="1" as="geometry">
            <mxPoint x="580" y="564.41" as="sourcePoint" />
            <mxPoint x="650.6600000000001" y="564.8599999999998" as="targetPoint" />
          </mxGeometry>
        </mxCell>
        <mxCell id="0QPjTk3yCglVvkzHG2xV-24" value="운영자" style="shape=umlActor;verticalLabelPosition=bottom;verticalAlign=top;html=1;" vertex="1" parent="1">
          <mxGeometry x="630" y="270" width="20" height="40" as="geometry" />
        </mxCell>
        <mxCell id="0QPjTk3yCglVvkzHG2xV-29" value="" style="endArrow=classic;startArrow=classic;html=1;exitX=1.004;exitY=0.414;exitDx=0;exitDy=0;exitPerimeter=0;" edge="1" parent="1" source="0QPjTk3yCglVvkzHG2xV-10">
          <mxGeometry width="50" height="50" relative="1" as="geometry">
            <mxPoint x="480" y="360" as="sourcePoint" />
            <mxPoint x="630" y="291" as="targetPoint" />
          </mxGeometry>
        </mxCell>
        <mxCell id="0QPjTk3yCglVvkzHG2xV-30" value="전표출력" style="text;html=1;strokeColor=none;fillColor=none;align=center;verticalAlign=middle;whiteSpace=wrap;rounded=0;" vertex="1" parent="1">
          <mxGeometry x="576" y="267" width="60" height="20" as="geometry" />
        </mxCell>
        <mxCell id="0QPjTk3yCglVvkzHG2xV-31" value="SpringBatch" style="html=1;" vertex="1" parent="1">
          <mxGeometry x="470" y="430" width="110" height="50" as="geometry" />
        </mxCell>
        <mxCell id="0QPjTk3yCglVvkzHG2xV-32" value="주문전표, 경로" style="html=1;verticalAlign=bottom;endArrow=block;entryX=1;entryY=0.5;entryDx=0;entryDy=0;exitX=0;exitY=0.5;exitDx=0;exitDy=0;" edge="1" parent="1" source="0QPjTk3yCglVvkzHG2xV-12" target="0QPjTk3yCglVvkzHG2xV-19">
          <mxGeometry width="80" relative="1" as="geometry">
            <mxPoint x="240" y="385" as="sourcePoint" />
            <mxPoint x="300" y="385" as="targetPoint" />
          </mxGeometry>
        </mxCell>
        <mxCell id="0QPjTk3yCglVvkzHG2xV-33" value="" style="endArrow=classic;html=1;entryX=0.5;entryY=0;entryDx=0;entryDy=0;exitX=0.5;exitY=1;exitDx=0;exitDy=0;" edge="1" parent="1" source="0QPjTk3yCglVvkzHG2xV-31" target="0QPjTk3yCglVvkzHG2xV-12">
          <mxGeometry width="50" height="50" relative="1" as="geometry">
            <mxPoint x="400" y="420" as="sourcePoint" />
            <mxPoint x="450" y="370" as="targetPoint" />
          </mxGeometry>
        </mxCell>
        <mxCell id="0QPjTk3yCglVvkzHG2xV-34" value="DB" style="shape=cylinder3;whiteSpace=wrap;html=1;boundedLbl=1;backgroundOutline=1;size=15;" vertex="1" parent="1">
          <mxGeometry x="380" y="430" width="40" height="60" as="geometry" />
        </mxCell>
        <mxCell id="0QPjTk3yCglVvkzHG2xV-36" value="" style="endArrow=classic;html=1;exitX=0.001;exitY=0.594;exitDx=0;exitDy=0;entryX=1;entryY=0.5;entryDx=0;entryDy=0;entryPerimeter=0;exitPerimeter=0;" edge="1" parent="1" source="0QPjTk3yCglVvkzHG2xV-31" target="0QPjTk3yCglVvkzHG2xV-34">
          <mxGeometry width="50" height="50" relative="1" as="geometry">
            <mxPoint x="380" y="410" as="sourcePoint" />
            <mxPoint x="430" y="360" as="targetPoint" />
          </mxGeometry>
        </mxCell>
        <mxCell id="0QPjTk3yCglVvkzHG2xV-37" value="수퍼마트 배송 주소지" style="text;html=1;strokeColor=none;fillColor=none;align=center;verticalAlign=middle;whiteSpace=wrap;rounded=0;" vertex="1" parent="1">
          <mxGeometry x="526" y="500" width="110" height="20" as="geometry" />
        </mxCell>
        <mxCell id="0QPjTk3yCglVvkzHG2xV-39" value="운영자" style="shape=umlActor;verticalLabelPosition=bottom;verticalAlign=top;html=1;" vertex="1" parent="1">
          <mxGeometry x="515" y="635" width="20" height="40" as="geometry" />
        </mxCell>
        <mxCell id="0QPjTk3yCglVvkzHG2xV-40" value="" style="endArrow=classic;startArrow=classic;html=1;exitX=0.5;exitY=0;exitDx=0;exitDy=0;exitPerimeter=0;entryX=0.5;entryY=1;entryDx=0;entryDy=0;" edge="1" parent="1" source="0QPjTk3yCglVvkzHG2xV-39" target="0QPjTk3yCglVvkzHG2xV-12">
          <mxGeometry width="50" height="50" relative="1" as="geometry">
            <mxPoint x="530" y="490" as="sourcePoint" />
            <mxPoint x="580" y="440" as="targetPoint" />
          </mxGeometry>
        </mxCell>
      </root>
    </mxGraphModel>
  </diagram>
</mxfile>
